<?xml version="1.0" encoding="UTF-8" standalone="no"?>
<!DOCTYPE svg PUBLIC "-//W3C//DTD SVG 1.1//EN" "http://www.w3.org/Graphics/SVG/1.1/DTD/svg11.dtd">
<!-- Generated by Microsoft Visio, SVG Export timer.svg Page-1 -->
<svg xmlns="http://www.w3.org/2000/svg" xmlns:xlink="http://www.w3.org/1999/xlink" xmlns:ev="http://www.w3.org/2001/xml-events"
		xmlns:v="http://schemas.microsoft.com/visio/2003/SVGExtensions/" width="6.4043in" height="1.1911in"
		viewBox="0 0 461.11 85.7594" xml:space="preserve" color-interpolation-filters="sRGB" class="st7">
	<title>PB</title>
	<v:documentProperties v:langID="1030" v:metric="true" v:viewMarkup="false">
		<v:userDefs>
			<v:ud v:nameU="msvConvertTheme"/>
		</v:userDefs>
	</v:documentProperties>

	<style type="text/css">
	<![CDATA[
		.st1 {stroke:#000000;stroke-linecap:round;stroke-linejoin:round;stroke-width:0.24}
		.st2 {marker-end:url(#mrkr4-24);marker-start:url(#mrkr4-22);stroke:#000000;stroke-linecap:round;stroke-linejoin:round;stroke-width:0.24}
		.st3 {fill:#000000;fill-opacity:1;stroke:#000000;stroke-opacity:1;stroke-width:0.08695652173913}
		.st4 {fill:none;stroke:none;stroke-linecap:round;stroke-linejoin:round;stroke-width:0.72}
		.st5 {fill:#000000;font-family:Arial;font-size:0.666664em}
		.st6 {marker-end:url(#mrkr4-24);stroke:#000000;stroke-linecap:round;stroke-linejoin:round;stroke-width:0.24}
		.st7 {fill:none;fill-rule:evenodd;font-size:12px;overflow:visible;stroke-linecap:square;stroke-miterlimit:3}
	]]>
	</style>

	<defs id="Markers">
		<g id="lend4">
			<path d="M 2 1 L 0 0 L 2 -1 L 2 1 " style="stroke:none"/>
		</g>
		<marker id="mrkr4-22" class="st3" v:arrowType="4" v:arrowSize="2" v:setback="21.5" refX="21.5" orient="auto"
				markerUnits="strokeWidth" overflow="visible">
			<use xlink:href="#lend4" transform="scale(11.5) "/>
		</marker>
		<marker id="mrkr4-24" class="st3" v:arrowType="4" v:arrowSize="2" v:setback="23" refX="-23" orient="auto"
				markerUnits="strokeWidth" overflow="visible">
			<use xlink:href="#lend4" transform="scale(-11.5,-11.5) "/>
		</marker>
	</defs>
	<g v:mID="0" v:index="1" v:groupContext="foregroundPage">
		<title>Page-1</title>
		<v:pageProperties v:drawingScale="0.0393701" v:pageScale="0.0393701" v:drawingUnits="24" v:shadowOffsetX="8.50394"
				v:shadowOffsetY="-8.50394"/>
		<g id="shape1-1" v:mID="1" v:groupContext="shape" transform="translate(7.44661,-71.2262)">
			<title>Sheet.1</title>
			<path d="M0 85.76 L226.77 85.76" class="st1"/>
		</g>
		<g id="shape2-4" v:mID="2" v:groupContext="shape" transform="translate(93.206,7.44661) rotate(90)">
			<title>Sheet.2</title>
			<path d="M0 85.76 L14.17 85.76" class="st1"/>
		</g>
		<g id="shape3-7" v:mID="3" v:groupContext="shape" transform="translate(234.218,-71.2261)">
			<title>Sheet.3</title>
			<path d="M0 85.76 L226.77 85.76" class="st1"/>
		</g>
		<g id="shape4-10" v:mID="4" v:groupContext="shape" transform="translate(319.978,7.44661) rotate(90)">
			<title>Sheet.4</title>
			<path d="M0 85.76 L14.17 85.76" class="st1"/>
		</g>
		<g id="shape6-13" v:mID="6" v:groupContext="shape" transform="translate(546.749,7.44661) rotate(90)">
			<title>Sheet.6</title>
			<path d="M0 85.76 L14.17 85.76" class="st1"/>
		</g>
		<g id="shape15-16" v:mID="15" v:groupContext="shape" transform="translate(7.44661,-42.8797)">
			<title>Sheet.15</title>
			<path d="M5.16 85.76 L5.52 85.76 L22.83 85.76" class="st2"/>
		</g>
		<g id="shape17-25" v:mID="17" v:groupContext="shape" transform="translate(0.36,-42.8797)">
			<title>Sheet.17</title>
			<desc>Offset</desc>
			<v:textBlock v:margins="rect(4,4,4,4)" v:tabSpace="42.5197"/>
			<v:textRect cx="21.2598" cy="78.6728" width="42.52" height="14.1732"/>
			<rect x="0" y="71.5861" width="42.5197" height="14.1732" class="st4"/>
			<text x="10.59" y="81.07" class="st5" v:langID="1030"><v:paragraph v:horizAlign="1"/><v:tabList/>Offset</text>		</g>
		<g id="shape21-28" v:mID="21" v:groupContext="shape" transform="translate(35.3881,-42.8797)">
			<title>Sheet.21</title>
			<path d="M5.16 85.76 L5.52 85.76 L51.58 85.76" class="st2"/>
		</g>
		<g id="shape32-35" v:mID="32" v:groupContext="shape" transform="translate(42.8797,-42.8797)">
			<title>Sheet.32</title>
			<desc>Interval</desc>
			<v:textBlock v:margins="rect(4,4,4,4)" v:tabSpace="42.5197"/>
			<v:textRect cx="21.2598" cy="78.6728" width="42.52" height="14.1732"/>
			<rect x="0" y="71.5861" width="42.5197" height="14.1732" class="st4"/>
			<text x="8.14" y="81.07" class="st5" v:langID="1030"><v:paragraph v:horizAlign="1"/><v:tabList/>Interval</text>		</g>
		<g id="shape38-38" v:mID="38" v:groupContext="shape" transform="translate(-49.9663,71.2261) rotate(-90)">
			<title>Sheet.38</title>
			<path d="M0 85.76 L15.74 85.76" class="st6"/>
		</g>
		<g id="shape39-43" v:mID="39" v:groupContext="shape" transform="translate(14.5332,-0.36)">
			<title>Sheet.39</title>
			<desc>Timeout</desc>
			<v:textBlock v:margins="rect(4,4,4,4)" v:tabSpace="42.5197"/>
			<v:textRect cx="21.2598" cy="78.6728" width="42.52" height="14.1732"/>
			<rect x="0" y="71.5861" width="42.5197" height="14.1732" class="st4"/>
			<text x="6.81" y="81.07" class="st5" v:langID="1030"><v:paragraph v:horizAlign="1"/><v:tabList/>Timeout</text>		</g>
		<g id="shape46-46" v:mID="46" v:groupContext="shape" transform="translate(64.1395,-71.2261)">
			<title>Sheet.46</title>
			<desc>Super Cycle (1 Second)</desc>
			<v:textBlock v:margins="rect(4,4,4,4)" v:tabSpace="42.5197"/>
			<v:textRect cx="56.6929" cy="78.6728" width="113.39" height="14.1732"/>
			<rect x="0" y="71.5861" width="113.386" height="14.1732" class="st4"/>
			<text x="14.23" y="81.07" class="st5" v:langID="1030"><v:paragraph v:horizAlign="1"/><v:tabList/>Super Cycle (1 Second)</text>		</g>
		<g id="shape47-49" v:mID="47" v:groupContext="shape" transform="translate(290.911,-71.2261)">
			<title>Sheet.47</title>
			<desc>Super Cycle (1 Second)</desc>
			<v:textBlock v:margins="rect(4,4,4,4)" v:tabSpace="42.5197"/>
			<v:textRect cx="56.6929" cy="78.6728" width="113.39" height="14.1732"/>
			<rect x="0" y="71.5861" width="113.386" height="14.1732" class="st4"/>
			<text x="14.23" y="81.07" class="st5" v:langID="1030"><v:paragraph v:horizAlign="1"/><v:tabList/>Super Cycle (1 Second)</text>		</g>
		<g id="shape55-52" v:mID="55" v:groupContext="shape" transform="translate(92.081,-42.8797)">
			<title>Sheet.55</title>
			<path d="M5.16 85.76 L5.52 85.76 L51.58 85.76" class="st2"/>
		</g>
		<g id="shape56-59" v:mID="56" v:groupContext="shape" transform="translate(99.5726,-42.8797)">
			<title>Sheet.56</title>
			<desc>Interval</desc>
			<v:textBlock v:margins="rect(4,4,4,4)" v:tabSpace="42.5197"/>
			<v:textRect cx="21.2598" cy="78.6728" width="42.52" height="14.1732"/>
			<rect x="0" y="71.5861" width="42.5197" height="14.1732" class="st4"/>
			<text x="8.14" y="81.07" class="st5" v:langID="1030"><v:paragraph v:horizAlign="1"/><v:tabList/>Interval</text>		</g>
		<g id="shape57-62" v:mID="57" v:groupContext="shape" transform="translate(6.72661,71.2261) rotate(-90)">
			<title>Sheet.57</title>
			<path d="M0 85.76 L15.74 85.76" class="st6"/>
		</g>
		<g id="shape58-67" v:mID="58" v:groupContext="shape" transform="translate(71.2261,-0.36)">
			<title>Sheet.58</title>
			<desc>Timeout</desc>
			<v:textBlock v:margins="rect(4,4,4,4)" v:tabSpace="42.5197"/>
			<v:textRect cx="21.2598" cy="78.6728" width="42.52" height="14.1732"/>
			<rect x="0" y="71.5861" width="42.5197" height="14.1732" class="st4"/>
			<text x="6.81" y="81.07" class="st5" v:langID="1030"><v:paragraph v:horizAlign="1"/><v:tabList/>Timeout</text>		</g>
		<g id="shape59-70" v:mID="59" v:groupContext="shape" transform="translate(148.774,-42.8797)">
			<title>Sheet.59</title>
			<path d="M5.16 85.76 L5.52 85.76 L51.58 85.76" class="st2"/>
		</g>
		<g id="shape60-77" v:mID="60" v:groupContext="shape" transform="translate(156.266,-42.8797)">
			<title>Sheet.60</title>
			<desc>Interval</desc>
			<v:textBlock v:margins="rect(4,4,4,4)" v:tabSpace="42.5197"/>
			<v:textRect cx="21.2598" cy="78.6728" width="42.52" height="14.1732"/>
			<rect x="0" y="71.5861" width="42.5197" height="14.1732" class="st4"/>
			<text x="8.14" y="81.07" class="st5" v:langID="1030"><v:paragraph v:horizAlign="1"/><v:tabList/>Interval</text>		</g>
		<g id="shape61-80" v:mID="61" v:groupContext="shape" transform="translate(63.4195,71.2261) rotate(-90)">
			<title>Sheet.61</title>
			<path d="M0 85.76 L15.74 85.76" class="st6"/>
		</g>
		<g id="shape62-85" v:mID="62" v:groupContext="shape" transform="translate(127.919,-0.36)">
			<title>Sheet.62</title>
			<desc>Timeout</desc>
			<v:textBlock v:margins="rect(4,4,4,4)" v:tabSpace="42.5197"/>
			<v:textRect cx="21.2598" cy="78.6728" width="42.52" height="14.1732"/>
			<rect x="0" y="71.5861" width="42.5197" height="14.1732" class="st4"/>
			<text x="6.81" y="81.07" class="st5" v:langID="1030"><v:paragraph v:horizAlign="1"/><v:tabList/>Timeout</text>		</g>
		<g id="shape63-88" v:mID="63" v:groupContext="shape" transform="translate(120.112,71.2261) rotate(-90)">
			<title>Sheet.63</title>
			<path d="M0 85.76 L15.74 85.76" class="st6"/>
		</g>
		<g id="shape64-93" v:mID="64" v:groupContext="shape" transform="translate(184.612,-0.36)">
			<title>Sheet.64</title>
			<desc>Timeout</desc>
			<v:textBlock v:margins="rect(4,4,4,4)" v:tabSpace="42.5197"/>
			<v:textRect cx="21.2598" cy="78.6728" width="42.52" height="14.1732"/>
			<rect x="0" y="71.5861" width="42.5197" height="14.1732" class="st4"/>
			<text x="6.81" y="81.07" class="st5" v:langID="1030"><v:paragraph v:horizAlign="1"/><v:tabList/>Timeout</text>		</g>
		<g id="shape65-96" v:mID="65" v:groupContext="shape" transform="translate(234.218,-42.8797)">
			<title>Sheet.65</title>
			<path d="M5.16 85.76 L5.52 85.76 L22.83 85.76" class="st2"/>
		</g>
		<g id="shape66-103" v:mID="66" v:groupContext="shape" transform="translate(227.132,-42.8797)">
			<title>Sheet.66</title>
			<desc>Offset</desc>
			<v:textBlock v:margins="rect(4,4,4,4)" v:tabSpace="42.5197"/>
			<v:textRect cx="21.2598" cy="78.6728" width="42.52" height="14.1732"/>
			<rect x="0" y="71.5861" width="42.5197" height="14.1732" class="st4"/>
			<text x="10.59" y="81.07" class="st5" v:langID="1030"><v:paragraph v:horizAlign="1"/><v:tabList/>Offset</text>		</g>
		<g id="shape67-106" v:mID="67" v:groupContext="shape" transform="translate(262.16,-42.8797)">
			<title>Sheet.67</title>
			<path d="M5.16 85.76 L5.52 85.76 L51.58 85.76" class="st2"/>
		</g>
		<g id="shape68-113" v:mID="68" v:groupContext="shape" transform="translate(269.651,-42.8797)">
			<title>Sheet.68</title>
			<desc>Interval</desc>
			<v:textBlock v:margins="rect(4,4,4,4)" v:tabSpace="42.5197"/>
			<v:textRect cx="21.2598" cy="78.6728" width="42.52" height="14.1732"/>
			<rect x="0" y="71.5861" width="42.5197" height="14.1732" class="st4"/>
			<text x="8.14" y="81.07" class="st5" v:langID="1030"><v:paragraph v:horizAlign="1"/><v:tabList/>Interval</text>		</g>
		<g id="shape69-116" v:mID="69" v:groupContext="shape" transform="translate(176.805,71.2261) rotate(-90)">
			<title>Sheet.69</title>
			<path d="M0 85.76 L15.74 85.76" class="st6"/>
		</g>
		<g id="shape70-121" v:mID="70" v:groupContext="shape" transform="translate(241.305,-0.36)">
			<title>Sheet.70</title>
			<desc>Timeout</desc>
			<v:textBlock v:margins="rect(4,4,4,4)" v:tabSpace="42.5197"/>
			<v:textRect cx="21.2598" cy="78.6728" width="42.52" height="14.1732"/>
			<rect x="0" y="71.5861" width="42.5197" height="14.1732" class="st4"/>
			<text x="6.81" y="81.07" class="st5" v:langID="1030"><v:paragraph v:horizAlign="1"/><v:tabList/>Timeout</text>		</g>
		<g id="shape71-124" v:mID="71" v:groupContext="shape" transform="translate(318.853,-42.8797)">
			<title>Sheet.71</title>
			<path d="M5.16 85.76 L5.52 85.76 L51.58 85.76" class="st2"/>
		</g>
		<g id="shape72-131" v:mID="72" v:groupContext="shape" transform="translate(326.344,-42.8797)">
			<title>Sheet.72</title>
			<desc>Interval</desc>
			<v:textBlock v:margins="rect(4,4,4,4)" v:tabSpace="42.5197"/>
			<v:textRect cx="21.2598" cy="78.6728" width="42.52" height="14.1732"/>
			<rect x="0" y="71.5861" width="42.5197" height="14.1732" class="st4"/>
			<text x="8.14" y="81.07" class="st5" v:langID="1030"><v:paragraph v:horizAlign="1"/><v:tabList/>Interval</text>		</g>
		<g id="shape73-134" v:mID="73" v:groupContext="shape" transform="translate(233.498,71.2261) rotate(-90)">
			<title>Sheet.73</title>
			<path d="M0 85.76 L15.74 85.76" class="st6"/>
		</g>
		<g id="shape74-139" v:mID="74" v:groupContext="shape" transform="translate(297.998,-0.36)">
			<title>Sheet.74</title>
			<desc>Timeout</desc>
			<v:textBlock v:margins="rect(4,4,4,4)" v:tabSpace="42.5197"/>
			<v:textRect cx="21.2598" cy="78.6728" width="42.52" height="14.1732"/>
			<rect x="0" y="71.5861" width="42.5197" height="14.1732" class="st4"/>
			<text x="6.81" y="81.07" class="st5" v:langID="1030"><v:paragraph v:horizAlign="1"/><v:tabList/>Timeout</text>		</g>
		<g id="shape75-142" v:mID="75" v:groupContext="shape" transform="translate(375.546,-42.8797)">
			<title>Sheet.75</title>
			<path d="M5.16 85.76 L5.52 85.76 L51.58 85.76" class="st2"/>
		</g>
		<g id="shape76-149" v:mID="76" v:groupContext="shape" transform="translate(383.037,-42.8797)">
			<title>Sheet.76</title>
			<desc>Interval</desc>
			<v:textBlock v:margins="rect(4,4,4,4)" v:tabSpace="42.5197"/>
			<v:textRect cx="21.2598" cy="78.6728" width="42.52" height="14.1732"/>
			<rect x="0" y="71.5861" width="42.5197" height="14.1732" class="st4"/>
			<text x="8.14" y="81.07" class="st5" v:langID="1030"><v:paragraph v:horizAlign="1"/><v:tabList/>Interval</text>		</g>
		<g id="shape77-152" v:mID="77" v:groupContext="shape" transform="translate(290.191,71.2261) rotate(-90)">
			<title>Sheet.77</title>
			<path d="M0 85.76 L15.74 85.76" class="st6"/>
		</g>
		<g id="shape78-157" v:mID="78" v:groupContext="shape" transform="translate(354.691,-0.36)">
			<title>Sheet.78</title>
			<desc>Timeout</desc>
			<v:textBlock v:margins="rect(4,4,4,4)" v:tabSpace="42.5197"/>
			<v:textRect cx="21.2598" cy="78.6728" width="42.52" height="14.1732"/>
			<rect x="0" y="71.5861" width="42.5197" height="14.1732" class="st4"/>
			<text x="6.81" y="81.07" class="st5" v:langID="1030"><v:paragraph v:horizAlign="1"/><v:tabList/>Timeout</text>		</g>
		<g id="shape79-160" v:mID="79" v:groupContext="shape" transform="translate(346.884,71.2261) rotate(-90)">
			<title>Sheet.79</title>
			<path d="M0 85.76 L15.74 85.76" class="st6"/>
		</g>
		<g id="shape80-165" v:mID="80" v:groupContext="shape" transform="translate(411.384,-0.36)">
			<title>Sheet.80</title>
			<desc>Timeout</desc>
			<v:textBlock v:margins="rect(4,4,4,4)" v:tabSpace="42.5197"/>
			<v:textRect cx="21.2598" cy="78.6728" width="42.52" height="14.1732"/>
			<rect x="0" y="71.5861" width="42.5197" height="14.1732" class="st4"/>
			<text x="6.81" y="81.07" class="st5" v:langID="1030"><v:paragraph v:horizAlign="1"/><v:tabList/>Timeout</text>		</g>
	</g>
</svg>
